<svg width="609" height="421" viewBox="0 0 609 421" fill="none" xmlns="http://www.w3.org/2000/svg">
<g clip-path="url(#clip0_2192_843)">
<path d="M553.52 396.371H50.9824V399.318H553.52V396.371Z" fill="#0E2E35"/>
<path d="M124.863 61.7343C123.734 62.1046 123.457 63.1848 122.746 65.855C121.475 70.631 120.202 75.4094 118.763 80.1383C118.536 80.8824 117.506 81.7283 116.703 81.9179C111.928 83.0462 107.084 83.8913 102.322 85.0667C100.846 85.4312 100.032 85.3881 99.0226 84.1718C94.9885 79.3096 90.8153 74.5591 86.7385 69.82C81.2569 71.8255 69.3821 79.94 66.2668 83.8697C69.2927 89.0593 72.3024 94.4079 75.5215 99.6308C76.5233 101.256 76.4811 102.157 75.2611 103.771C72.4305 107.515 69.9373 111.523 67.5396 115.557C66.5687 117.191 65.7615 118.098 63.6212 117.878C58.0734 117.309 52.4893 117.071 46.93 116.594C45.4357 116.466 44.559 116.853 44.2888 118.322C43.0177 125.234 41.7563 132.147 40.4873 139.059C40.1752 140.758 41.5732 140.838 42.6028 141.122C47.8122 142.562 53.0165 144.031 58.2717 145.298C60.2448 145.774 60.9834 146.652 61.2966 148.657C62.1255 153.963 63.3065 159.215 64.4272 164.893C59.6121 168.943 54.2956 173.414 48.8312 178.01C52.3871 185.404 57.1412 191.867 63.1061 197.804C69.1578 194.391 75.2121 190.977 80.5472 187.969C86.1174 191.272 91.2067 194.445 96.4682 197.315C97.9912 198.145 98.319 198.905 98.1682 200.459C97.6451 205.853 97.2926 211.261 96.8072 216.658C96.7022 217.824 96.7607 218.663 98.0948 219.086C104.836 221.221 111.672 222.768 118.823 222.838C120.417 222.853 120.968 222.222 121.344 220.885C122.859 215.503 124.479 210.149 125.971 204.762C126.333 203.457 126.804 202.87 128.329 202.563C133.618 201.5 138.868 200.21 144.073 198.791C145.403 198.429 145.982 198.785 146.725 199.643C150.866 204.42 155.044 209.167 159.315 214.047C166.711 210.364 173.459 206.007 179.446 200.228C175.949 194.177 172.475 188.165 169.15 182.412C172.838 176.745 176.408 171.258 180.228 165.388C185.116 165.726 190.744 166.156 196.378 166.492C201.002 166.768 200.486 167.48 201.84 162.776C201.969 162.327 202.263 161.923 202.481 161.498C203.209 157.351 203.937 153.205 204.665 149.058C204.658 148.111 204.497 147.137 204.672 146.223C205.126 143.844 204.438 142.624 201.836 142.027C196.413 140.784 191.068 139.205 185.731 137.638C185.031 137.433 184.222 136.571 184.042 135.867C182.863 131.271 182.086 126.559 180.667 122.043C179.973 119.833 180.484 118.802 182.14 117.46C186.835 113.653 191.373 109.656 196.435 105.341C191.724 98.6614 187.129 92.1461 182.483 85.5573C181.119 86.293 180.328 86.7039 179.552 87.1416C174.766 89.8415 169.954 92.4992 165.218 95.2821C163.873 96.0723 163.036 95.8616 161.762 95.0514C157.385 92.2674 152.825 89.7616 148.428 87.0063C147.746 86.5791 147.157 85.3849 147.198 84.5747C147.429 80.1393 147.908 75.7153 148.228 71.2826C148.487 67.6964 148.57 66.3638 147.271 65.4023L124.863 61.7343ZM129.24 93.0393C142.626 94.6453 154.542 101.289 162.79 111.746C171.039 122.204 174.634 135.224 172.913 148.407C171.192 161.59 164.361 173.359 153.678 181.545C142.995 189.732 129.739 193.356 116.353 191.75C102.966 190.144 91.0503 183.5 82.8014 173.042C74.5527 162.585 70.9577 149.565 72.6789 136.382C74.4001 123.199 81.2312 111.43 91.914 103.243C102.597 95.0571 115.853 91.4332 129.24 93.0393Z" fill="#50BFA5"/>
<path d="M361.841 166.267L373.291 162.817C373.731 162.381 373.595 161.807 373.273 160.382C372.695 157.833 372.118 155.283 371.631 152.717C371.555 152.313 371.831 151.676 372.162 151.401C374.132 149.764 376.204 148.245 378.156 146.588C378.761 146.075 379.155 145.907 379.929 146.248C383.025 147.611 386.159 148.889 389.245 150.183C391.331 147.969 394.923 141.392 395.422 138.816C392.72 137.066 389.986 135.236 387.185 133.515C386.313 132.979 386.112 132.544 386.289 131.5C386.699 129.077 386.886 126.609 387.021 124.149C387.076 123.154 387.233 122.539 388.294 122.148C391.046 121.133 393.732 119.954 396.467 118.894C397.202 118.609 397.519 118.223 397.284 117.467C396.181 113.91 395.073 110.354 393.968 106.798C393.697 105.923 393.019 106.209 392.465 106.313C389.658 106.838 386.847 107.347 384.061 107.964C383.015 108.196 382.452 107.952 381.811 107.078C380.114 104.764 378.266 102.558 376.34 100.136C377.609 97.1108 379.011 93.7703 380.451 90.3367C376.957 87.6681 373.129 85.7158 368.859 84.2924C366.851 87.3029 364.842 90.3147 363.071 92.9689C359.636 92.697 356.46 92.3762 353.277 92.2379C352.355 92.1979 352.014 91.9149 351.702 91.1465C350.621 88.4791 349.455 85.844 348.355 83.1835C348.117 82.6084 347.883 82.2261 347.151 82.3352C343.453 82.8859 339.854 83.7367 336.471 85.3571C335.717 85.7183 335.613 86.1433 335.765 86.8617C336.377 89.753 336.932 92.6554 337.556 95.5441C337.707 96.2441 337.63 96.6298 336.988 97.1272C334.761 98.8524 332.607 100.675 330.506 102.549C329.969 103.028 329.609 102.993 329.048 102.76C325.923 101.463 322.788 100.187 319.576 98.871C317.001 102.32 314.898 105.938 313.503 110.05C316.639 112.099 319.754 114.134 322.735 116.082C322.395 119.61 322.065 123.026 321.712 126.681C319.328 127.652 316.573 128.75 313.839 129.894C311.594 130.833 311.662 130.378 312.183 132.912C312.233 133.153 312.193 133.412 312.195 133.663C312.874 135.789 313.552 137.916 314.23 140.042C314.467 140.487 314.782 140.91 314.925 141.382C315.297 142.61 315.921 143.027 317.293 142.707C320.151 142.04 323.056 141.549 325.954 141.055C326.334 140.99 326.926 141.21 327.185 141.501C328.872 143.398 330.397 145.444 332.177 147.248C333.047 148.13 333.061 148.735 332.612 149.752C331.339 152.635 330.187 155.571 328.867 158.779C332.729 160.843 336.495 162.857 340.305 164.894C340.765 164.231 341.037 163.854 341.294 163.468C342.882 161.086 344.493 158.719 346.037 156.31C346.475 155.626 346.921 155.532 347.72 155.62C350.466 155.922 353.229 156.05 355.977 156.335C356.403 156.379 356.975 156.806 357.154 157.198C358.138 159.346 359.002 161.545 359.942 163.712C360.703 165.465 360.992 166.113 361.841 166.267ZM360.248 142.575C350.013 145.658 339.1 139.957 335.874 129.84C332.647 119.723 338.329 109.021 348.563 105.938C358.798 102.854 369.71 108.556 372.937 118.673C376.164 128.79 370.482 139.491 360.248 142.575Z" fill="#F47458"/>
<path d="M460.501 71.4996C434.639 92.5937 430.935 130.357 452.245 155.681C473.555 181.005 511.933 184.447 537.796 163.353C563.659 142.259 567.362 104.495 546.052 79.1715C524.742 53.8474 486.364 50.406 460.501 71.4996ZM471.565 81.5685L471.565 81.5686C491.782 66.48 520.521 70.3024 535.756 90.1061C550.99 109.91 546.95 138.196 526.733 153.284L526.733 153.284C506.515 168.373 477.776 164.55 462.542 144.747C447.307 124.943 451.347 96.6571 471.565 81.5685Z" fill="#F7CC7F"/>
<path d="M426.485 47.2596C425.858 48.5805 426.617 49.7424 428.471 52.6382C431.787 57.818 435.105 63 438.234 68.2898C438.726 69.1223 438.622 70.7572 438.108 71.6344C435.051 76.8495 431.673 81.8858 428.67 87.1293C427.74 88.7543 427.001 89.4439 425.013 89.3137C417.063 88.7937 409.097 88.4922 401.225 88.1143C398.37 94.7024 395.666 112.168 396.618 118.275C404.005 119.972 411.524 121.818 419.107 123.371C421.468 123.854 422.262 124.655 422.705 127.11C423.731 132.807 425.29 138.426 426.954 143.981C427.628 146.231 427.772 147.719 425.732 149.442C420.445 153.908 415.433 158.688 410.221 163.243C408.82 164.467 408.425 165.577 409.549 167.062C414.836 174.05 420.133 181.031 425.423 188.018C426.724 189.736 427.997 188.556 429.143 187.879C434.943 184.452 440.766 181.054 446.446 177.439C448.578 176.082 450.022 176.167 452.142 177.586C457.75 181.342 463.609 184.737 469.812 188.547C469.416 196.272 468.979 204.801 468.531 213.569C478.406 216.66 488.451 217.894 499.049 217.602C501.094 209.313 503.14 201.022 504.943 193.714C512.773 191.544 520.069 189.692 527.234 187.429C529.307 186.775 530.29 187.126 531.595 188.577C536.123 193.612 540.811 198.508 545.375 203.512C546.362 204.594 547.186 205.252 548.721 204.42C556.477 200.216 563.773 195.428 569.975 189.109C571.358 187.7 571.247 186.674 570.337 185.206C566.671 179.296 563.12 173.316 559.429 167.422C558.535 165.994 558.398 165.077 559.424 163.457C562.981 157.838 566.298 152.063 569.457 146.218C570.264 144.725 571.09 144.511 572.519 144.574C580.482 144.927 588.448 145.222 596.618 145.545C599.568 135.829 601.338 126.118 601.144 115.884C592.558 113.878 584.028 111.884 575.865 109.976C573.8 101.887 571.802 94.0547 569.663 85.6742C574.17 81.601 579.397 76.9453 584.543 72.2049C588.767 68.314 588.981 69.3768 585.802 64.185C585.499 63.6895 585.378 63.085 585.173 62.5311C581.971 58.3688 578.77 54.2069 575.568 50.0449C574.687 49.2498 573.651 48.5678 572.957 47.6376C571.151 45.2179 569.435 44.7978 566.651 46.6137C560.849 50.3981 554.805 53.8278 548.777 57.2612C547.988 57.7111 546.498 57.7028 545.693 57.2671C540.439 54.4257 535.424 51.1273 530.039 48.5674C527.404 47.315 526.891 45.986 527.074 43.3723C527.59 35.9591 527.797 28.5267 528.159 20.3559C517.952 18.8999 507.995 17.4796 497.927 16.0433C497.436 17.8826 497.135 18.9364 496.873 19.9997C495.257 26.5555 493.579 33.0985 492.083 39.6803C491.657 41.5492 490.745 42.1174 488.904 42.5672C482.578 44.1131 476.351 46.0583 470.034 47.6466C469.055 47.8929 467.446 47.4073 466.735 46.6836C462.839 42.7212 459.168 38.5466 455.352 34.5067C452.265 31.2377 451.106 30.0347 449.104 30.3791L426.485 47.2596ZM459.132 69.8723C472.104 59.292 488.462 54.2914 505.193 55.7918C521.924 57.2919 537.025 65.1136 547.714 77.8155C558.402 90.5176 563.4 106.58 561.785 123.043C560.171 139.506 552.137 154.399 539.165 164.98C526.193 175.56 509.834 180.56 493.103 179.06C476.373 177.56 461.272 169.738 450.583 157.036C439.894 144.334 434.897 128.272 436.511 111.809C438.126 95.346 446.159 80.4527 459.132 69.8723Z" fill="#F7CC7F"/>
<path d="M330.772 119.159H292.969C289.1 119.159 285.963 122.241 285.963 126.043V138.215C285.963 142.017 289.1 145.099 292.969 145.099H330.772C334.642 145.099 337.778 142.017 337.778 138.215V126.043C337.778 122.241 334.642 119.159 330.772 119.159Z" fill="#5184CE"/>
<path d="M280.692 374.861L240.652 392.997V397.014H383.247V392.997L342.845 374.861H280.692Z" fill="#466EB6"/>
<path d="M342.87 374.894H280.691V297.128H342.87V374.894Z" fill="#466EB6"/>
<path d="M499.932 321.524V146.163C499.932 137.831 493.059 131.077 484.58 131.077H138.578C130.099 131.077 123.226 137.831 123.226 146.163V321.524H499.932Z" fill="#466EB6"/>
<path d="M342.845 365.736H280.691V374.861H342.845V365.736Z" fill="#184655"/>
<path d="M123.226 321.524V349.625C123.226 355.47 127.157 360.208 132.007 360.208H491.151C496.001 360.208 499.932 355.47 499.932 349.625V321.524H123.226Z" fill="#5184CE"/>
<path d="M491.114 313.909V146.632C491.114 142.247 487.367 138.692 482.744 138.692H140.414C135.791 138.692 132.044 142.247 132.044 146.632V313.909H491.114Z" fill="#CCE6FF"/>
<path d="M240.652 397.014H383.246V392.997H240.652V397.014ZM0 0H609V421H0V0ZM0 421H609V0H0V421Z" fill="#184655"/>
<path d="M407.595 300.457H405.01V284.445H407.595V300.457Z" fill="#466EB6"/>
<path d="M390.703 300.941H381.158V259.358H390.703V300.941Z" fill="#466EB6"/>
<path d="M468.919 300.774H468.422V298.494H468.919V300.774Z" fill="#9BC1F9"/>
<path d="M387.374 300.349H384.788V291.681H387.374V300.349Z" fill="#9BC1F9"/>
<path d="M363.631 300.18H147.812V152.195H363.631V300.18Z" fill="#E9FFFF"/>
<path d="M363.631 169.522H147.812V152.195H363.631V169.522Z" fill="#5184CE"/>
<path d="M354.46 201.782H155.259V176.657H354.46V201.782Z" fill="#9BC1F9"/>
<path d="M218.332 283.232H155.259V208.917H218.332V283.232Z" fill="#5184CE"/>
<path d="M354.459 215.357H226.246V208.917H354.459V215.357Z" fill="#9BC1F9"/>
<path d="M316.138 228.932H226.2V222.492H316.138V228.932Z" fill="#9BC1F9"/>
<path d="M380.92 182.716H411.993V152.181H380.92V182.716ZM0 0H609V421H0V0ZM0 421H609V0H0V421Z" fill="#9BC1F9"/>
<path d="M429.529 152.818H417.405V151.988H429.529V152.818Z" fill="#9BC1F9"/>
<path d="M446.16 163.745H417.522V160.841H446.16V163.745Z" fill="#9BC1F9"/>
<path d="M460.973 173.085H417.41V169.766H460.973V173.085Z" fill="#9BC1F9"/>
<path d="M65.1498 234.814L184.9 234.602C186.699 234.599 188.159 236.029 188.162 237.796L188.446 392.858C188.45 394.625 186.994 396.06 185.196 396.063L65.4455 396.275C63.6472 396.279 62.1869 394.849 62.1837 393.081L61.8994 238.02C61.8962 236.253 63.3513 234.817 65.1498 234.814Z" fill="#F7CC7F"/>
<path d="M68.4736 239.313L181.592 239.113L181.87 390.673L68.7515 390.873L68.4736 239.313Z" fill="white"/>
<path d="M149.544 232.524C149.543 231.842 148.98 231.291 148.286 231.292L100.79 231.376C100.096 231.377 99.5349 231.931 99.5361 232.612L99.5449 237.463L149.553 237.375L149.544 232.524Z" fill="#13375B"/>
<path d="M124.527 225.435C120.39 225.443 117.043 228.744 117.05 232.81C117.057 236.875 120.417 240.164 124.554 240.157C128.691 240.15 132.039 236.848 132.031 232.783C132.024 228.718 128.664 225.428 124.527 225.435ZM124.549 237.517C121.896 237.522 119.741 235.412 119.737 232.805C119.732 230.198 121.879 228.08 124.532 228.075C127.185 228.071 129.339 230.18 129.344 232.788C129.349 235.395 127.202 237.513 124.549 237.517Z" fill="#13375B"/>
<path d="M148.775 231.388C149.227 231.575 149.543 232.013 149.544 232.524L149.553 237.375L99.5449 237.463C99.5511 240.824 102.329 243.544 105.749 243.538L143.372 243.471C146.792 243.465 149.559 240.736 149.553 237.375L149.544 232.524C149.543 232.013 149.227 231.575 148.775 231.388Z" fill="#355389"/>
<path d="M100.79 231.376C100.356 231.377 99.9742 231.593 99.749 231.922C99.9742 231.593 100.356 231.377 100.79 231.376Z" fill="#9BC1F9"/>
<path d="M99.5918 232.245C99.6162 232.167 99.6479 232.094 99.6865 232.023C99.6479 232.094 99.6162 232.167 99.5918 232.245Z" fill="#9BC1F9"/>
<path d="M77.1039 270.771L145.924 270.649L145.92 268.375L77.0996 268.496L77.1039 270.771Z" fill="#9BC1F9"/>
<path d="M77.1156 277.212L145.935 277.09L145.931 274.816L77.1113 274.938L77.1156 277.212Z" fill="#9BC1F9"/>
<path d="M77.1273 283.652L145.947 283.531L145.943 281.256L77.123 281.378L77.1273 283.652Z" fill="#9BC1F9"/>
<path d="M77.1039 297.715L145.924 297.594L145.92 295.319L77.0996 295.441L77.1039 297.715Z" fill="#9BC1F9"/>
<path d="M77.1156 304.156L145.935 304.034L145.931 301.76L77.1113 301.882L77.1156 304.156Z" fill="#9BC1F9"/>
<path d="M77.1273 310.597L145.947 310.475L145.943 308.2L77.123 308.322L77.1273 310.597Z" fill="#9BC1F9"/>
<path d="M77.1039 323.606L145.924 323.485L145.92 321.21L77.0996 321.332L77.1039 323.606Z" fill="#9BC1F9"/>
<path d="M77.1156 330.047L145.935 329.926L145.931 327.651L77.1113 327.773L77.1156 330.047Z" fill="#9BC1F9"/>
<path d="M77.1273 336.488L145.947 336.366L145.943 334.092L77.123 334.214L77.1273 336.488Z" fill="#9BC1F9"/>
<path d="M77.1039 349.498L145.924 349.376L145.92 347.102L77.0996 347.223L77.1039 349.498Z" fill="#9BC1F9"/>
<path d="M77.1156 355.939L145.935 355.817L145.931 353.543L77.1113 353.665L77.1156 355.939Z" fill="#9BC1F9"/>
<path d="M77.1273 362.38L145.947 362.258L145.943 359.983L77.123 360.105L77.1273 362.38Z" fill="#9BC1F9"/>
<path d="M77.1586 379.032L156.553 378.891L156.549 376.617L77.1543 376.758L77.1586 379.032Z" fill="#9BC1F9"/>
<path d="M77.1686 384.543L172.219 384.375L172.215 382.1L77.1641 382.269L77.1686 384.543Z" fill="#9BC1F9"/>
<path d="M168.303 347.309H152.772L152.987 362.465H168.196L168.303 347.309Z" stroke="#184655" stroke-width="4"/>
<path d="M156.414 351.098L160.163 357.624C160.163 357.624 161.644 354.142 163.064 350.804" stroke="#F47458" stroke-width="11"/>
<path d="M168.303 320.786H152.772L152.987 335.942H168.196L168.303 320.786Z" stroke="#184655" stroke-width="4"/>
<path d="M164.179 322.997L160.27 329.101L156.468 334.311" stroke="#F47458" stroke-width="11"/>
<path d="M156.468 322.628L160.27 329.101L163.483 334.574" stroke="#F47458" stroke-width="11"/>
<path d="M168.303 294.685H152.772L152.987 309.841H168.196L168.303 294.685Z" stroke="#184655" stroke-width="4"/>
<path d="M156.414 298.473L160.163 304.999L165.625 292.158" stroke="#F47458" stroke-width="11"/>
<path d="M168.303 268.372H152.772L152.987 283.528H168.196L168.303 268.372Z" stroke="#184655" stroke-width="4"/>
<path d="M156.414 272.161L160.163 278.686L165.625 265.846" stroke="#F47458" stroke-width="11"/>
<path d="M101.008 261.055V253.483H97.9375V252.821H105.047V253.483H101.976V261.055H101.008Z" fill="#184655"/>
<path d="M112.892 260.392V261.055H106.729V252.821H112.675V253.483H107.69V256.367H111.299V257.03H107.69V260.392H112.892Z" fill="#184655"/>
<path d="M113.874 259.084L114.708 258.811C114.989 259.398 115.347 259.831 115.785 260.111C116.222 260.392 116.758 260.532 117.393 260.532C118.048 260.532 118.575 260.385 118.975 260.092C119.374 259.799 119.574 259.413 119.574 258.934C119.574 258.552 119.443 258.237 119.182 257.99C118.92 257.743 118.476 257.518 117.849 257.314C117.508 257.206 117.056 257.076 116.493 256.924C115.929 256.772 115.568 256.659 115.409 256.584C114.909 256.354 114.554 256.109 114.344 255.85C114.133 255.59 114.028 255.269 114.028 254.886C114.028 254.203 114.292 253.667 114.82 253.275C115.349 252.883 116.075 252.687 117.001 252.687C117.824 252.687 118.502 252.848 119.038 253.169C119.573 253.49 119.981 253.983 120.261 254.647L119.448 254.853C119.191 254.341 118.86 253.962 118.456 253.717C118.051 253.473 117.552 253.35 116.959 253.35C116.384 253.35 115.918 253.482 115.56 253.745C115.203 254.009 115.024 254.352 115.024 254.775C115.024 255.095 115.14 255.363 115.371 255.582C115.602 255.801 115.961 255.98 116.447 256.117C116.634 256.173 116.905 256.248 117.26 256.345C118.279 256.62 118.936 256.837 119.231 256.996C119.702 257.241 120.045 257.509 120.258 257.801C120.47 258.092 120.577 258.437 120.577 258.834C120.577 259.554 120.29 260.127 119.718 260.554C119.145 260.981 118.371 261.194 117.393 261.194C116.515 261.194 115.792 261.023 115.224 260.682C114.656 260.341 114.206 259.808 113.874 259.084Z" fill="#184655"/>
<path d="M124.552 261.055V253.483H121.481V252.821H128.591V253.483H125.52V261.055H124.552Z" fill="#184655"/>
<path d="M130.427 252.821H131.387V261.055H130.427V252.821Z" fill="#184655"/>
<path d="M135.251 253.417V261.055H134.318V252.821H135.882L140.853 259.769V252.821H141.785V261.055H140.762L135.251 253.417Z" fill="#184655"/>
<path d="M150.585 260.131C150.239 260.495 149.83 260.767 149.358 260.946C148.885 261.127 148.336 261.216 147.71 261.216C146.424 261.216 145.446 260.852 144.772 260.122C144.099 259.393 143.763 258.336 143.763 256.952C143.763 255.582 144.106 254.525 144.793 253.781C145.48 253.037 146.453 252.665 147.71 252.665C148.64 252.665 149.383 252.862 149.939 253.255C150.496 253.649 150.907 254.268 151.174 255.115L150.269 255.265C150.045 254.601 149.723 254.111 149.305 253.795C148.887 253.48 148.35 253.322 147.696 253.322C146.761 253.322 146.039 253.629 145.53 254.243C145.02 254.858 144.765 255.729 144.765 256.857C144.765 258.075 145.024 258.993 145.54 259.613C146.056 260.233 146.824 260.543 147.843 260.543C148.61 260.543 149.227 260.367 149.694 260.017C150.162 259.666 150.395 259.203 150.395 258.627V257.748H147.815V257.13H151.433V261.055H150.585V260.131Z" fill="#184655"/>
<path d="M68.5879 343.941C68.5879 343.941 80.905 338.679 91.6155 344.468C102.326 350.256 106.932 356.992 108.003 368.149C108.777 376.212 105.355 382.131 101.619 386.542" stroke="#9BC1F9" stroke-width="18"/>
<path d="M68.8018 352.046C68.8018 352.046 76.4062 347.204 84.6533 349.309C92.9004 351.414 100.291 357.834 100.719 367.517C101.148 377.2 96.7562 382.252 93.2217 384.884C89.6873 387.515 81.9757 392.988 68.8018 386.252" stroke="#9BC1F9" stroke-width="9"/>
<path d="M407.671 36.269L409.841 42.276L412.397 37.2984L421.619 24.7448L412.419 30.4909C412.419 30.4909 408.112 34.1472 407.969 34.5177C407.826 34.8882 407.671 36.269 407.671 36.269Z" fill="#50BFA5"/>
<path d="M401.626 35.0208L421.607 24.7382L407.667 36.2536L401.626 35.0208Z" fill="#96D9C9"/>
<path d="M417.071 38.6671L409.655 37.189L421.621 24.7457L417.071 38.6671Z" fill="#96D9C9"/>
<path d="M209.042 73.0498C211.713 72.0651 213.151 81.4214 216.914 90.4009C217.435 91.4201 216.471 90.8413 217.965 95.5154C218.521 97.2535 217.756 98.0509 216.444 101.652C215.979 102.928 213.789 105.84 213.848 106.132C214.269 108.209 213.901 109.681 213.236 111.475C212.82 112.599 212.716 107.695 212.871 107.854C213.394 108.393 211.705 112.207 211.088 112.34C210.459 112.476 211.635 108.176 211.635 108.176L211.547 108.245C210.795 110.628 210.152 112.733 209.737 112.613C208.971 112.39 209.938 109.523 210.615 108.034C209.402 109.944 208.653 112.418 207.991 112.2C207.474 112.03 208.385 109.313 209.367 107.899C209.238 107.911 208.256 110.003 207.694 110.128C207.243 110.228 207.903 107.997 209.619 106.642C209.949 106.382 210.782 105.645 211.077 104.981C211.46 104.122 212.046 101.98 212.216 101.217C212.651 99.2604 213.157 97.9701 212.86 97.0079C212.401 95.5249 211.65 94.6037 211.152 93.8824C208.438 89.9466 209.723 91.8411 206.639 85.6493C204.643 81.6418 206.935 73.8263 209.042 73.0498Z" fill="#F7A491"/>
<path d="M208.833 71.1538C209.265 71.1713 210.448 71.5609 212.179 74.7748C214.389 78.8794 218.583 91.0675 218.583 91.0675L208.298 94.7012L205.346 86.1143L204.698 72.2949C204.698 72.2949 208.713 71.149 208.833 71.1538Z" fill="#A34B3D"/>
<path d="M196.088 69.3667C198.845 69.3703 205.667 70.1607 208.833 71.1549C208.833 71.1549 211.159 90.8007 206.739 105.729C205.749 109.071 207.557 119.582 207.557 119.582L178.987 119.211C178.987 119.211 182.372 93.8005 181.097 89.696C179.822 85.5917 179.791 71.2871 179.791 71.2871C179.791 71.2871 179.987 71.257 186.21 70.2001C189.113 69.7069 193.144 69.3629 196.088 69.3667Z" fill="#B75742"/>
<path d="M204.334 113.665C204.334 113.665 224.055 112.589 228.459 115.21C232.864 117.831 225.331 130.694 225.331 130.694C225.331 130.694 211.607 130.072 184.728 131.597C178.362 131.958 177.814 115.287 179.004 113.908C180.195 112.529 204.334 113.665 204.334 113.665Z" fill="#E0973F"/>
<path d="M182.442 158.279C182.442 158.279 181.266 165.406 181.892 167.608C182.518 169.811 180.498 172.813 180.324 173.25C180.149 173.687 177.684 173.778 174.127 172.513C170.569 171.247 170.842 170.424 171.483 169.141C172.124 167.859 174.515 166.587 174.963 165.327C175.411 164.067 175.359 159.13 175.359 159.13L182.442 158.279Z" fill="#F7A491"/>
<path d="M173.543 172.938C169.868 171.631 170.806 169.901 171.468 168.576C171.883 167.747 173.231 166.975 174.127 166.154C174.396 166.503 174.825 167.106 176.342 167.981C177.919 168.89 180.507 168.463 182.154 168.202C182.183 170.289 181.568 172.793 181.422 173.16C181.241 173.611 177.219 174.246 173.543 172.938Z" fill="#DD513A"/>
<path d="M186.606 129.913C185.909 135.793 182.42 165.062 182.42 165.062L173.438 164.037C173.438 164.037 172.182 124.435 174.178 118.904C176.173 113.374 180.303 113.863 180.303 113.863C180.303 113.863 188.451 114.346 186.606 129.913Z" fill="#F7CC7F"/>
<path d="M179.502 73.4263C182.114 72.3147 184.654 95.9086 185.523 105.628C190.262 105.851 198.46 105.016 200.499 104.767C201.458 104.65 203.636 103.743 204.587 103.574C205.561 103.4 206.447 103.292 206.934 103.352C207.113 103.374 212.132 105.122 212.575 105.536C213.125 106.05 214.606 107.343 214.399 107.942C214.192 108.541 211.601 106.433 211.601 106.433L210.358 105.822C211.939 107.2 214.909 108.972 214.532 109.687C214.164 110.384 211.473 108.57 209.559 107.337C211.215 108.672 213.314 111.1 212.882 111.515C212.493 111.888 210.103 109.074 207.668 108.347C206.766 108.078 205.928 108.982 205.237 109.12C204.728 109.221 203.947 109.422 203.437 109.305L200.811 108.705C199.933 108.825 199.937 109.341 199.057 109.57C198.034 109.836 196.35 110.145 195.051 110.524C187.565 112.711 185.081 113.679 182.76 113.788C175.73 114.119 173.33 76.0536 179.502 73.4263Z" fill="#F7A491"/>
<path d="M175.608 95.9024C174.59 85.9599 174.021 73.6728 179.573 71.3072C181.764 70.3739 185.963 75.1581 186.32 95.5947C183.31 95.985 178.883 96.3948 175.608 95.9024Z" fill="#A34B3D"/>
<path d="M219.333 162.89C219.333 162.89 217.982 165.137 218.972 167.059C219.963 168.98 225.301 171.877 225.843 172.918C226.384 173.961 226.15 174.687 226.15 174.687L210.21 170.539L211.531 165.81L213.093 162.554L219.333 162.89Z" fill="#F7A491"/>
<path d="M219.78 168.087C219.78 168.087 215.262 168.775 213.504 167.341C211.746 165.908 211.871 165.653 211.207 165.882C210.781 166.029 210.099 167.91 209.667 169.235C209.436 169.94 209.855 170.691 210.582 170.882L227.182 175.235C228.445 175.497 229.298 174.734 228.465 173.719C227.894 173.022 227.171 172.477 226.774 172.111C225.554 170.987 219.78 168.087 219.78 168.087Z" fill="#DD513A"/>
<path d="M218.63 118.133C219.954 115.52 222.916 112.138 227.968 114.297C232.787 116.355 233.996 121.224 232.366 126.16C230.735 131.095 220.073 160.089 219.642 164.093L211.585 164.003C211.585 164.003 213.503 140.929 213.972 135.352C214.424 129.986 216.337 122.657 218.63 118.133Z" fill="#F7CC7F"/>
<path d="M231.703 91.3909H204.729C204.015 91.3909 203.372 91.8161 203.102 92.4672L194.796 112.441H179.925C179.509 112.441 179.172 112.773 179.172 113.183C179.172 113.593 179.509 113.925 179.925 113.925H222.249C223.413 113.925 224.468 113.252 224.945 112.205L233.308 93.8354C233.83 92.688 232.979 91.3909 231.703 91.3909Z" fill="#184655"/>
<path d="M217.18 103.022C216.998 103.919 216.204 104.519 215.407 104.362C214.61 104.205 214.112 103.35 214.294 102.453C214.477 101.556 215.27 100.956 216.067 101.113C216.864 101.27 217.362 102.125 217.18 103.022Z" fill="white"/>
<path d="M202.498 45.3719C201.685 45.1029 200.884 44.7994 200.111 44.4331C199.238 44.019 198.106 43.5343 197.391 43.4256C195.885 43.1975 193.299 43.3494 191.871 44.872C190.091 46.7686 186.93 45.2147 187.567 55.1484C188.288 66.3922 194.65 65.1583 194.804 64.9678C194.959 64.7777 200.478 57.7746 200.478 57.7746C200.478 57.7746 202.408 61.9231 202.408 61.7709C202.408 61.624 212.263 48.6037 202.498 45.3719Z" fill="#0E2E35"/>
<path d="M197.668 65.7983L198.217 69.8159C198.217 69.8159 199.448 75.6043 197.865 76.7201C196.282 77.836 191.134 69.6509 191.134 69.6509L191.677 59.4707L197.668 65.7983Z" fill="#F7A491"/>
<path d="M191.501 62.7698C192.808 66.2422 195.922 68.3769 198.133 69.2048L197.667 65.7985L191.677 59.4705L191.501 62.7698Z" fill="#F47458"/>
<path d="M197.342 48.3918C200.696 47.8596 203.705 50.5102 203.621 53.8096C203.584 55.244 203.465 57.0349 203.161 58.9631C202.432 63.601 199.212 67.6847 197.083 67.3199C194.954 66.9553 189.597 62.9546 190.54 56.3546C191.122 52.2799 193.823 48.9502 197.342 48.3918Z" fill="#F7A491"/>
<path d="M192.017 57.1424C191.838 58.1623 191.006 58.8717 190.16 58.7266C189.315 58.5818 188.775 57.6377 188.954 56.6178C189.134 55.598 189.965 54.8886 190.811 55.0334C191.657 55.1782 192.197 56.1225 192.017 57.1424Z" fill="#F7A491"/>
<path d="M190.812 55.0337C190.812 55.0337 193.386 55.6623 194.341 54.0351C195.297 52.408 198.713 48.897 203.055 50.3529C207.398 51.8087 199.234 46.8133 198.887 46.8133C198.539 46.8133 194.37 46.7847 194.37 46.7847C194.37 46.7847 191.157 49.3822 191.041 49.6677C190.925 49.9533 189.999 53.0647 189.999 53.0647L190.812 55.0337Z" fill="#0E2E35"/>
<path d="M195.522 61.822L200.206 62.7021C200.206 62.7021 199.759 64.436 197.687 64.1076C195.162 63.7075 195.522 61.822 195.522 61.822Z" fill="white"/>
<path d="M253.363 375.653C253.363 375.653 251.748 382.147 250.654 384.078C250.068 385.111 248.097 386.997 248.306 388.211C248.516 389.424 249.065 389.885 249.065 389.885L263.409 394.674C264.19 394.935 263.839 394.266 263.361 393.602C262.579 392.513 261.91 391.746 259.132 389.101C258.951 388.928 258.331 388.181 258.106 387.918C257.533 387.253 257.041 386.335 256.65 385.448C255.999 383.97 257.772 378.362 257.772 378.362L253.363 375.653Z" fill="#F7A491"/>
<path d="M258.133 387.885C253.982 387.653 251.376 386.09 250.007 384.951C249.214 385.978 248.191 387.256 248.199 388.183C248.209 389.317 248.632 389.707 249.07 389.859C252.533 391.058 261.795 394.132 264.448 395.012C264.818 395.134 265.168 394.765 265.024 394.404C264.626 393.406 258.36 388.149 258.133 387.885Z" fill="#F7CC7F"/>
<path d="M269.73 291.424C269.73 291.424 264.441 299.291 263.182 305.803C261.922 312.314 264.106 332.324 261.684 340.856C260.372 345.475 255.402 352.607 254.646 358.576C253.891 364.545 250.927 380.179 250.927 380.179L257.641 381.494L273.245 342.449L285.484 307.158L288.62 288.982L269.73 291.424Z" fill="#F47458"/>
<path d="M277.567 381.771C277.567 381.771 278.097 388.398 277.667 390.552C277.437 391.705 276.156 394.079 276.744 395.164C277.331 396.249 278.003 396.521 278.003 396.521L293.234 396.763C294.064 396.776 293.516 396.248 292.847 395.763C291.752 394.967 290.868 394.441 287.37 392.769C287.142 392.66 286.312 392.138 286.012 391.957C285.253 391.499 284.49 390.777 283.833 390.055C282.74 388.852 282.644 383.016 282.644 383.016L277.567 381.771Z" fill="#F7A491"/>
<path d="M289.472 293.687C289.472 293.687 291.39 304.446 290.131 311.5C288.872 318.554 282.827 383.936 282.827 383.936L276.11 384.31C276.11 384.31 274.702 356.998 274.954 353.2C275.206 349.402 277.199 343.046 277.199 343.046L276.53 320.995L285.007 292.026L289.472 293.687Z" fill="#E25A44"/>
<path d="M286.01 391.955C281.982 392.977 279.004 392.283 277.338 391.619C276.909 392.822 276.339 394.331 276.641 395.202C277.011 396.267 277.538 396.509 278.003 396.521C281.682 396.616 291.48 396.746 294.286 396.782C294.678 396.787 294.894 396.335 294.642 396.038C293.946 395.216 286.31 392.137 286.01 391.955Z" fill="#F7CC7F"/>
<path d="M313.58 275.102C313.861 274.515 310.902 273.717 310.806 273.086C310.711 272.454 314.678 272.81 314.877 272.284C315.243 271.315 310.557 271.632 310.697 271.175C310.836 270.719 315.653 270.158 315.228 269.307C314.804 268.456 310.296 270.4 310.224 269.845C310.153 269.289 314.582 268.407 314.631 267.211C314.657 266.571 307.255 269.661 306.48 269.233C305.704 268.805 307.705 265.99 307.105 265.481C306.505 264.972 303.908 270.859 303.439 271.03C302.971 271.202 292.814 274.22 289.361 274.72C289.211 274.132 289.285 268.946 287.894 264.082C286.567 259.442 283.774 255.115 283.652 254.585C277.987 253.21 276.059 258.894 279.535 267.149C280.58 270.77 282.926 282.483 283.863 283.02C286.717 284.655 301.735 276.86 304.217 275.481C306.702 274.099 307.97 274.759 309.589 274.407C311.208 274.056 313.3 275.688 313.58 275.102Z" fill="#F38B80"/>
<path d="M286.859 239.974C287.614 236.6 288.354 233.204 286.362 229.497C284.751 226.497 281.965 224.771 278.74 224.395C269.605 223.33 271.647 229.604 260.567 233.929C255.961 237.151 247.728 232.822 235.426 227.066C222.632 221.044 204.212 228.126 213.401 246.761C218.928 258.007 237.885 261.031 251.275 260.077C258.932 259.412 267.497 256.618 272.794 254.071C275.703 252.665 279.292 254.659 280.051 253.811C283.569 249.879 286.372 242.146 286.859 239.974Z" fill="#0E2E35"/>
<path d="M272.48 250.625C272.48 250.625 267.867 251.139 265.108 254.089C262.349 257.038 269.568 280.747 270.07 284.501C270.571 288.255 265.272 298.644 265.272 298.644C265.272 298.644 283.286 302.163 287.968 299.124C287.968 299.124 288.379 270.11 287.878 267.428C287.376 264.747 283.195 253.842 282.192 252.77C281.188 251.697 272.48 250.625 272.48 250.625Z" fill="#F7CC7F"/>
<path d="M274.801 241.485C274.801 241.485 274.765 241.687 274.701 242.029C274.389 243.674 273.192 249.129 272.383 250.629C271.405 252.441 275.73 258.222 279.892 257.516C281.131 257.306 278.845 252.205 278.955 251.664C279.165 250.63 279.45 249.219 279.742 247.772C279.907 246.956 280.074 246.129 280.23 245.351C280.675 243.14 281.039 241.333 281.039 241.333L274.801 241.485Z" fill="#F7A491"/>
<path d="M273.425 269.865L292.741 272.642C293.322 272.726 293.724 273.256 293.639 273.827L289.869 299.15C289.784 299.721 289.244 300.116 288.664 300.032L269.348 297.256C268.767 297.172 268.365 296.642 268.45 296.071L272.22 270.747C272.305 270.177 272.845 269.782 273.425 269.865Z" fill="#184655"/>
<path d="M287.832 271.097C287.85 270.982 287.768 270.874 287.65 270.857L279.593 269.699C279.476 269.682 279.366 269.762 279.349 269.878L279.227 270.701L287.71 271.92L287.832 271.097Z" fill="#13375B"/>
<path d="M283.771 269.277C283.069 269.177 282.417 269.654 282.314 270.343C282.212 271.033 282.697 271.674 283.399 271.775C284.101 271.876 284.753 271.398 284.856 270.709C284.958 270.019 284.473 269.378 283.771 269.277ZM283.466 271.327C283.016 271.262 282.704 270.851 282.77 270.409C282.836 269.967 283.254 269.661 283.704 269.725C284.154 269.79 284.466 270.201 284.4 270.643C284.334 271.086 283.916 271.392 283.466 271.327Z" fill="#13375B"/>
<path d="M287.732 270.885C287.803 270.928 287.846 271.011 287.833 271.097L287.71 271.92L279.227 270.7C279.142 271.271 279.544 271.8 280.124 271.884L286.506 272.801C287.086 272.885 287.626 272.49 287.71 271.92L287.833 271.097C287.846 271.011 287.803 270.928 287.732 270.885Z" fill="#355389"/>
<path d="M274.7 242.029C274.765 241.687 274.801 241.485 274.801 241.485L281.038 241.333C281.038 241.333 280.675 243.14 280.23 245.351C280.074 246.124 279.908 246.947 279.745 247.759C278.782 247.62 277.775 247.161 276.766 246.295C275.667 245.35 274.946 244.216 274.511 243.004C274.588 242.618 274.652 242.284 274.7 242.029Z" fill="#F47458"/>
<path d="M278.553 226.918C278.553 226.918 276.009 227.264 274.166 229.602C272.324 231.939 270.337 239.167 274.915 243.097C279.493 247.027 284.016 242.579 284.686 237.862C285.357 233.146 285.222 226.747 278.553 226.918Z" fill="#F7A491"/>
<path d="M286.021 236.698C285.732 237.835 284.974 238.603 284.328 238.414C283.681 238.224 283.391 237.149 283.68 236.012C283.969 234.875 284.727 234.106 285.373 234.296C286.02 234.486 286.31 235.561 286.021 236.698Z" fill="#F7A491"/>
<path d="M281.378 226.939C281.378 226.939 275.4 233.682 272.591 234C269.781 234.318 269.412 237.97 269.412 237.97C269.412 237.97 270.417 229.554 273.198 227.931C275.98 226.308 281.378 226.939 281.378 226.939Z" fill="#0E2E35"/>
<path d="M273.509 235.638C273.738 236.858 273.278 237.978 272.483 238.138C271.687 238.298 270.857 237.438 270.629 236.218C270.4 234.997 270.86 233.878 271.655 233.717C272.451 233.557 273.281 234.417 273.509 235.638Z" fill="#F7A491"/>
<path d="M281.825 240.199L277.478 240.177C277.478 240.177 277.569 241.799 279.48 241.863C281.811 241.942 281.825 240.199 281.825 240.199Z" fill="white"/>
<path d="M259.873 276.341L266.872 277.044C266.872 277.044 266.758 282.881 266.878 283.552C266.878 283.552 278.846 286.812 283.848 287.697C283.848 287.697 286.126 286.428 287.047 286.025C287.969 285.622 290.446 285.181 290.993 285.111C291.541 285.041 291.354 285.63 290.883 285.836C290.413 286.042 289.196 286.606 288.851 287.296C288.851 287.296 289.839 287.402 290.362 287.173C290.884 286.944 291.604 286.459 291.616 286.208C291.627 285.957 291.746 285.352 291.918 285.384C291.962 285.392 292.02 285.591 292.078 285.799C292.134 285.997 292.193 286.199 292.242 286.399C292.33 286.757 292.431 287.28 292.47 287.515C292.56 288.051 292.226 289.529 292.18 290.054C292.094 291.013 291.815 291.439 291.3 291.684C290.469 291.968 289.591 292.149 288.292 292.281C285.911 292.523 283.723 291.85 282.768 291.744C281.814 291.639 266.574 290.153 266.574 290.153C266.574 290.153 260.515 289.297 260.113 288.272C259.712 287.248 259.873 276.341 259.873 276.341Z" fill="#F7A491"/>
<path d="M265.953 253.232C265.953 253.232 263.744 254.261 261.802 258.707C259.957 262.932 259.415 284.015 259.415 284.015L266.736 282.816L270.457 272.986C273.108 267.102 272.424 260.251 268.56 255.056C267.53 253.67 266.58 252.833 265.953 253.232Z" fill="#F7CC7F"/>
<path d="M471.402 384.94C471.402 384.94 472.481 387.674 472.208 388.384C471.936 389.093 468.668 396.546 467.558 396.889C466.447 397.231 463.892 396.699 464.285 397.804C464.582 398.639 468.995 400.424 471.954 401.533C472.818 401.856 476.938 395.648 477.722 394.814C478.86 393.603 481.512 390.912 481.527 389.726C481.534 389.148 480.963 387.704 479.942 386.141C478.867 384.498 478.407 381.687 478.407 381.687L471.402 384.94Z" fill="#F48C7F"/>
<path d="M479.883 386.042C479.883 386.042 469.649 396.6 467.616 396.435C467.077 396.391 464.654 395.818 463.781 396.614C463.518 396.854 463.192 397.897 463.192 397.897L472.537 401.994C472.537 401.994 476.253 396.994 477.834 394.774C477.834 394.774 483.028 389.935 483 389.276C482.972 388.618 479.883 386.042 479.883 386.042Z" fill="#F47458"/>
<path d="M508.151 381.479C508.151 381.479 511.145 386.351 511.15 386.364C511.468 387.168 512.455 389.111 512.617 389.867C513.225 392.704 499.216 390.019 501.834 388.188C502.071 388.022 502.696 386.95 502.575 385.967C502.388 384.453 500.77 382.829 500.77 382.829L508.151 381.479Z" fill="#F7A491"/>
<path d="M513.553 390.659L511.079 386.292C511.079 386.292 508.248 388.227 506.645 388.319C505.044 388.413 501.82 388.147 501.82 388.147C496.045 391.427 491.169 393.434 492.444 394.888L513.553 390.659Z" fill="#F47458"/>
<path d="M469.043 290.877C468.067 293.79 468.49 297.949 468.52 298.089C471.738 313.23 475.005 343.411 476.184 346.142C479.06 352.805 501.659 385.201 501.659 385.201L509.599 382.598L491.759 341.551L490.25 324.468C490.25 324.468 490.596 294.969 488.607 289.62C486.618 284.27 472.315 281.114 469.043 290.877Z" fill="#50BFA5"/>
<path d="M493.825 300.493L491.473 309.404L479.754 345.184L479.373 385.012C479.373 385.012 475.055 388.937 471.652 388.261L463.629 343.678L468.972 293.479C468.972 293.479 468.588 284.134 479.331 284.963C490.074 285.793 493.825 300.493 493.825 300.493Z" fill="#96D9C9"/>
<path d="M462.12 276.332L450.059 266.882L450.054 266.885C449.947 266.543 448.804 262.868 448.748 262.21C448.69 261.52 446.652 260.314 445.705 260.491C444.759 260.669 446.515 261.836 446.63 262.05C446.944 262.633 445.731 262.852 445.731 262.852C445.731 262.852 442.287 261.767 442.213 260.661C442.175 260.095 440.452 260.704 441.927 262.474C440.238 259.862 439.925 262.81 440.06 263.017C440.33 263.43 445.958 267.886 446.769 268.853C446.769 268.853 461.272 285.075 462.409 285.467C464.765 286.28 467.415 284.641 466.792 281.966C465.836 277.86 462.12 276.332 462.12 276.332Z" fill="#F7A491"/>
<path d="M474.87 253.99C473.429 253.223 464.682 259.193 465.096 260.622C465.51 262.051 461.531 277.404 461.531 277.404C461.531 277.404 460.379 280.45 460.973 282.633C461.715 285.361 464.066 285.776 464.719 285.914C465.749 286.131 468.165 281.131 470.574 276.582C472.984 272.033 479.372 256.385 474.87 253.99Z" fill="#F7A491"/>
<path d="M464.688 263.827L476.346 264.997C476.346 264.997 476.881 255.605 476.881 251.125C476.881 245.689 476.395 240.587 475.795 240.26C473.815 239.181 471.342 240.279 469.839 242.308C464.638 249.331 464.688 263.827 464.688 263.827Z" fill="#B75742"/>
<path d="M470.414 250.166C470.17 251.823 465.688 296.875 465.688 296.875C486.916 306.95 498.629 298.67 498.629 298.67C498.629 298.67 497.934 267.034 498.767 262.728C499.318 259.879 500.004 240.948 498.125 240.417C495.715 239.737 492.95 239.014 489.938 238.707C487.365 238.445 476.707 238.786 475.078 239.593C475.078 239.593 471.441 243.197 470.414 250.166Z" fill="#F47458"/>
<path d="M487.1 229.998L488.468 238.861C488.468 238.861 483.471 249.413 480.488 248.497C477.985 247.73 479.525 238.393 479.525 238.393C479.525 238.393 480.89 233.379 480.48 230.87C480.071 228.361 487.1 229.998 487.1 229.998Z" fill="#F7A491"/>
<path d="M480.48 230.87C480.071 228.361 487.1 229.998 487.1 229.998L487.214 230.734C487.008 231.225 486.756 231.646 486.451 231.969C484.881 233.629 482.427 234.626 480.306 234.702C480.518 233.349 480.648 231.899 480.48 230.87Z" fill="#F47458"/>
<path d="M488.253 217.461C488.452 217.39 489.846 227.554 487.201 230.351C484.556 233.148 479.403 234.063 477.555 231.86C475.51 229.424 475.613 218.5 479.725 215.623C483.837 212.746 488.253 217.461 488.253 217.461Z" fill="#F7A491"/>
<path d="M481.291 210.186C484.469 210.822 486.527 212.731 487.284 213.545C488.727 213.712 490.689 214.496 492.714 217.791C495.205 221.844 493.365 226.333 490.466 228.536C487.567 230.738 487.607 233.283 487.607 233.283L487.149 231.967C486.811 230.97 486.673 229.912 486.786 228.867C486.854 228.239 486.99 227.561 487.255 227.003C487.952 225.532 485.757 224.555 485.142 223.331C484.668 222.389 484.644 220.233 483.898 218.675L483.006 217.486C483.006 217.486 480.949 215.912 478.936 216.356C476.923 216.8 477.213 209.368 481.291 210.186Z" fill="#0E2E35"/>
<path d="M485.276 225.14C485.255 226.38 485.829 227.395 486.557 227.407C487.286 227.42 487.894 226.425 487.915 225.184C487.936 223.944 487.362 222.929 486.633 222.917C485.905 222.905 485.297 223.9 485.276 225.14Z" fill="#F7A491"/>
<path d="M480.982 228.005L476.995 227.802C476.995 227.802 477.009 229.295 478.759 229.434C480.894 229.604 480.982 228.005 480.982 228.005Z" fill="white"/>
<path d="M448.36 251.178C449.296 250.236 450.17 249.264 450.982 248.271L468.383 264.969C469.452 265.995 469.084 268.07 467.56 269.603C466.037 271.136 463.934 271.547 462.865 270.52L445.465 253.823C446.456 253.001 447.424 252.12 448.36 251.178Z" fill="#0E2E35"/>
<g opacity="0.964018">
<path d="M385.769 251.389C403.217 268.133 431.089 267.894 448.024 250.854C464.959 233.814 464.543 206.426 447.095 189.681C429.647 172.936 401.774 173.176 384.839 190.216C367.904 207.256 368.32 234.644 385.769 251.389Z" fill="#C5DDF9"/>
</g>
<path d="M381.767 255.416C401.492 274.346 433.003 274.075 452.148 254.811C471.293 235.547 470.823 204.584 451.097 185.654C431.372 166.724 399.861 166.994 380.716 186.259C361.571 205.523 362.041 236.485 381.767 255.416ZM385.769 251.388C368.321 234.644 367.905 207.256 384.839 190.216C401.774 173.176 429.647 172.936 447.095 189.681C464.543 206.426 464.959 233.814 448.025 250.854C431.09 267.894 403.217 268.133 385.769 251.388Z" fill="#184655"/>
<path d="M383.87 253.299C402.399 271.081 431.997 270.826 449.98 252.731C467.964 234.636 467.522 205.552 448.993 187.771C430.465 169.989 400.866 170.244 382.883 188.339C364.9 206.434 365.342 235.517 383.87 253.299ZM385.769 251.389C368.321 234.644 367.905 207.256 384.839 190.216C401.774 173.176 429.647 172.936 447.095 189.681C464.543 206.426 464.959 233.814 448.025 250.854C431.09 267.894 403.217 268.133 385.769 251.389Z" fill="#50BFA5"/>
<path d="M522.424 324.455L525.127 321.698C527.83 318.944 527.748 314.558 524.945 311.903L474.711 264.043C471.907 261.387 467.445 261.468 464.742 264.222L462.038 266.978C459.336 269.732 459.417 274.118 462.22 276.773L512.455 324.634C515.258 327.289 519.721 327.209 522.424 324.455Z" fill="#184655"/>
<path d="M519.653 297.353C519.666 297.256 519.668 297.159 519.658 297.063C519.345 293.943 516.709 267.743 516.265 266.63C515.864 265.624 504.042 249.007 504.042 249.007L498.23 256.787L509.601 271.691C509.856 272.638 513.958 290.324 513.958 290.324C513.958 290.324 514.799 293.548 515.176 295.479C515.004 295.944 514.835 296.384 514.686 296.744C514.309 297.515 513.865 298.147 513.461 298.679C512.953 299.348 512.112 300.811 512.008 301.202C511.888 301.657 511.671 302.603 511.548 303.173C511.425 303.744 511.257 304.409 511.229 304.718C511.212 304.907 511.014 305.283 510.862 305.548C510.635 305.944 511.022 306.411 511.46 306.268C511.874 306.133 512.195 305.607 512.393 305.28C512.953 304.356 513.251 302.668 513.39 302.758C513.529 302.847 514.02 305.71 514.097 306.033C514.175 306.357 514.763 309.682 515.095 310.29C515.427 310.897 515.866 310.795 515.982 310.415C516.083 310.087 515.616 305.436 515.616 305.436C515.616 305.436 515.558 304.842 515.822 305.028C516.087 305.213 516.519 309.436 516.703 310.054C516.887 310.672 517.306 310.999 517.662 310.503C518.095 309.899 517.35 305.419 517.35 305.419C517.35 305.419 517.267 304.857 517.512 304.909C517.756 304.961 518.063 308.56 518.254 308.871C518.444 309.183 518.925 309.294 519.154 308.775C519.424 308.164 518.725 304.172 518.725 304.172C518.725 304.172 518.759 303.854 518.912 303.959C519.064 304.065 519.549 307.114 519.865 307.397C520.13 307.634 520.351 307.404 520.351 307.404C520.931 307.015 520.042 304.114 520.051 302.672C520.059 301.23 519.379 299.609 519.582 297.892C519.595 297.784 519.63 297.519 519.653 297.353Z" fill="#F8A492"/>
<path d="M513.278 259.532L503.179 266.195C503.179 266.195 497.486 257.871 494.431 254.908C490.603 251.196 495.825 239.824 498.291 240.468C503.808 241.907 513.278 259.532 513.278 259.532Z" fill="#F47458"/>
</g>
<defs>
<clipPath id="clip0_2192_843">
<rect width="609" height="421" fill="white"/>
</clipPath>
</defs>
</svg>
